<mxfile host="app.diagrams.net" agent="Mozilla/5.0 (Windows NT 10.0; Win64; x64) AppleWebKit/537.36 (KHTML, like Gecko) Chrome/129.0.0.0 Safari/537.36" version="24.7.16">
  <diagram id="C5RBs43oDa-KdzZeNtuy" name="Page-1">
    <mxGraphModel dx="4068" dy="1968" grid="1" gridSize="10" guides="1" tooltips="1" connect="1" arrows="1" fold="1" page="0" pageScale="1" pageWidth="827" pageHeight="1169" math="0" shadow="0">
      <root>
        <mxCell id="WIyWlLk6GJQsqaUBKTNV-0" />
        <mxCell id="WIyWlLk6GJQsqaUBKTNV-1" parent="WIyWlLk6GJQsqaUBKTNV-0" />
        <mxCell id="un3A0tuxOY-VdEOLaRhM-5" value="" style="edgeStyle=orthogonalEdgeStyle;rounded=0;orthogonalLoop=1;jettySize=auto;html=1;" edge="1" parent="WIyWlLk6GJQsqaUBKTNV-1" source="WIyWlLk6GJQsqaUBKTNV-6" target="un3A0tuxOY-VdEOLaRhM-4">
          <mxGeometry relative="1" as="geometry" />
        </mxCell>
        <mxCell id="un3A0tuxOY-VdEOLaRhM-30" value="" style="edgeStyle=orthogonalEdgeStyle;rounded=0;orthogonalLoop=1;jettySize=auto;html=1;" edge="1" parent="WIyWlLk6GJQsqaUBKTNV-1" source="WIyWlLk6GJQsqaUBKTNV-6" target="un3A0tuxOY-VdEOLaRhM-29">
          <mxGeometry relative="1" as="geometry" />
        </mxCell>
        <mxCell id="WIyWlLk6GJQsqaUBKTNV-6" value="&lt;span style=&quot;line-height: 107%; font-family: Calibri, sans-serif;&quot;&gt;&lt;font style=&quot;font-size: 18px;&quot;&gt;&amp;nbsp; &amp;nbsp; IF IPK &amp;gt;= 2.25 AND total_sks &amp;gt;= 144&lt;br&gt;AND sks_mka_pilihan &amp;gt;= 15 AND sks_nilai_D &amp;lt;= 0.25 * total_sks AND&lt;br&gt;sks_nilai_E == 0&amp;nbsp;&lt;/font&gt;&lt;/span&gt;" style="rhombus;whiteSpace=wrap;html=1;shadow=0;fontFamily=Helvetica;fontSize=12;align=center;strokeWidth=1;spacing=6;spacingTop=-4;" parent="WIyWlLk6GJQsqaUBKTNV-1" vertex="1">
          <mxGeometry x="-30" y="190" width="690" height="230" as="geometry" />
        </mxCell>
        <mxCell id="un3A0tuxOY-VdEOLaRhM-3" style="edgeStyle=orthogonalEdgeStyle;rounded=0;orthogonalLoop=1;jettySize=auto;html=1;entryX=0.5;entryY=0;entryDx=0;entryDy=0;" edge="1" parent="WIyWlLk6GJQsqaUBKTNV-1" source="un3A0tuxOY-VdEOLaRhM-1" target="WIyWlLk6GJQsqaUBKTNV-6">
          <mxGeometry relative="1" as="geometry" />
        </mxCell>
        <mxCell id="un3A0tuxOY-VdEOLaRhM-1" value="&lt;font style=&quot;font-size: 18px;&quot;&gt;INPUT&lt;br&gt;&lt;span style=&quot;line-height: 107%;&quot;&gt;nim,&lt;br&gt;nama, total_sks, IPK, sks_mka_pilihan, sks_nilai_D, sks_nilai_E, lama_lulus&lt;/span&gt;&lt;br&gt;&lt;br&gt;&lt;/font&gt;&lt;div&gt;&lt;br&gt;&lt;/div&gt;" style="shape=parallelogram;perimeter=parallelogramPerimeter;whiteSpace=wrap;html=1;fixedSize=1;align=center;verticalAlign=bottom;" vertex="1" parent="WIyWlLk6GJQsqaUBKTNV-1">
          <mxGeometry y="10" width="630" height="130" as="geometry" />
        </mxCell>
        <mxCell id="un3A0tuxOY-VdEOLaRhM-27" style="edgeStyle=orthogonalEdgeStyle;rounded=0;orthogonalLoop=1;jettySize=auto;html=1;" edge="1" parent="WIyWlLk6GJQsqaUBKTNV-1" source="un3A0tuxOY-VdEOLaRhM-4" target="un3A0tuxOY-VdEOLaRhM-25">
          <mxGeometry relative="1" as="geometry" />
        </mxCell>
        <mxCell id="un3A0tuxOY-VdEOLaRhM-39" style="edgeStyle=orthogonalEdgeStyle;rounded=0;orthogonalLoop=1;jettySize=auto;html=1;entryX=0.5;entryY=0;entryDx=0;entryDy=0;" edge="1" parent="WIyWlLk6GJQsqaUBKTNV-1" source="un3A0tuxOY-VdEOLaRhM-4" target="un3A0tuxOY-VdEOLaRhM-14">
          <mxGeometry relative="1" as="geometry" />
        </mxCell>
        <mxCell id="un3A0tuxOY-VdEOLaRhM-4" value="&lt;p class=&quot;MsoNormal&quot;&gt;&lt;font style=&quot;font-size: 18px;&quot;&gt;&amp;nbsp; &amp;nbsp; &amp;nbsp; &amp;nbsp; IF IPK &amp;gt;=&lt;br&gt;3.51 AND lama_lulus &amp;lt;= 8&amp;nbsp;&lt;/font&gt;&lt;/p&gt;" style="rhombus;whiteSpace=wrap;html=1;shadow=0;fontFamily=Helvetica;fontSize=12;align=center;strokeWidth=1;spacing=6;spacingTop=-4;" vertex="1" parent="WIyWlLk6GJQsqaUBKTNV-1">
          <mxGeometry x="160" y="490" width="310" height="110" as="geometry" />
        </mxCell>
        <mxCell id="un3A0tuxOY-VdEOLaRhM-38" style="edgeStyle=orthogonalEdgeStyle;rounded=0;orthogonalLoop=1;jettySize=auto;html=1;" edge="1" parent="WIyWlLk6GJQsqaUBKTNV-1" source="un3A0tuxOY-VdEOLaRhM-8" target="un3A0tuxOY-VdEOLaRhM-1">
          <mxGeometry relative="1" as="geometry" />
        </mxCell>
        <mxCell id="un3A0tuxOY-VdEOLaRhM-8" value="&lt;font style=&quot;font-size: 18px;&quot;&gt;&lt;br&gt;&lt;span style=&quot;color: rgb(0, 0, 0); font-family: Helvetica; font-style: normal; font-variant-ligatures: normal; font-variant-caps: normal; font-weight: 400; letter-spacing: normal; orphans: 2; text-align: center; text-indent: 0px; text-transform: none; widows: 2; word-spacing: 0px; -webkit-text-stroke-width: 0px; white-space: normal; background-color: rgb(255, 255, 255); text-decoration-thickness: initial; text-decoration-style: initial; text-decoration-color: initial; float: none; display: inline !important;&quot;&gt;Start&lt;/span&gt;&lt;br&gt;&lt;/font&gt;" style="strokeWidth=2;html=1;shape=mxgraph.flowchart.terminator;whiteSpace=wrap;verticalAlign=top;" vertex="1" parent="WIyWlLk6GJQsqaUBKTNV-1">
          <mxGeometry x="200" y="-140" width="230" height="80" as="geometry" />
        </mxCell>
        <mxCell id="un3A0tuxOY-VdEOLaRhM-10" value="&lt;font style=&quot;font-size: 18px;&quot;&gt;Yes&lt;/font&gt;" style="text;html=1;align=center;verticalAlign=middle;whiteSpace=wrap;rounded=0;" vertex="1" parent="WIyWlLk6GJQsqaUBKTNV-1">
          <mxGeometry x="320" y="450" width="60" height="30" as="geometry" />
        </mxCell>
        <mxCell id="un3A0tuxOY-VdEOLaRhM-12" value="&lt;font style=&quot;font-size: 18px;&quot;&gt;Yes&lt;/font&gt;" style="text;html=1;align=center;verticalAlign=middle;whiteSpace=wrap;rounded=0;" vertex="1" parent="WIyWlLk6GJQsqaUBKTNV-1">
          <mxGeometry x="540" y="550" width="60" height="30" as="geometry" />
        </mxCell>
        <mxCell id="un3A0tuxOY-VdEOLaRhM-13" value="&lt;font style=&quot;font-size: 18px;&quot;&gt;NO&lt;/font&gt;" style="text;html=1;align=center;verticalAlign=middle;whiteSpace=wrap;rounded=0;" vertex="1" parent="WIyWlLk6GJQsqaUBKTNV-1">
          <mxGeometry x="-120" y="490" width="110" height="60" as="geometry" />
        </mxCell>
        <mxCell id="un3A0tuxOY-VdEOLaRhM-19" value="" style="edgeStyle=orthogonalEdgeStyle;rounded=0;orthogonalLoop=1;jettySize=auto;html=1;" edge="1" parent="WIyWlLk6GJQsqaUBKTNV-1" source="un3A0tuxOY-VdEOLaRhM-14" target="un3A0tuxOY-VdEOLaRhM-18">
          <mxGeometry relative="1" as="geometry" />
        </mxCell>
        <mxCell id="un3A0tuxOY-VdEOLaRhM-46" style="edgeStyle=orthogonalEdgeStyle;rounded=0;orthogonalLoop=1;jettySize=auto;html=1;" edge="1" parent="WIyWlLk6GJQsqaUBKTNV-1" source="un3A0tuxOY-VdEOLaRhM-14" target="un3A0tuxOY-VdEOLaRhM-42">
          <mxGeometry relative="1" as="geometry" />
        </mxCell>
        <mxCell id="un3A0tuxOY-VdEOLaRhM-14" value="&lt;p class=&quot;MsoNormal&quot;&gt;&lt;span style=&quot;line-height: 107%;&quot;&gt;&lt;font style=&quot;font-size: 18px;&quot;&gt;&amp;nbsp; &amp;nbsp; &amp;nbsp; &amp;nbsp; IF 3.01 &amp;lt;= IPK &amp;lt;= 3.50 OR&lt;br&gt;(IPK &amp;gt;= 3.51 AND lama_lulus &amp;gt; 8)&amp;nbsp;&lt;/font&gt;&lt;/span&gt;&lt;br&gt;&lt;/p&gt;" style="rhombus;whiteSpace=wrap;html=1;shadow=0;fontFamily=Helvetica;fontSize=12;align=center;strokeWidth=1;spacing=6;spacingTop=-4;" vertex="1" parent="WIyWlLk6GJQsqaUBKTNV-1">
          <mxGeometry x="-340" y="630" width="440" height="120" as="geometry" />
        </mxCell>
        <mxCell id="un3A0tuxOY-VdEOLaRhM-51" value="" style="edgeStyle=orthogonalEdgeStyle;rounded=0;orthogonalLoop=1;jettySize=auto;html=1;" edge="1" parent="WIyWlLk6GJQsqaUBKTNV-1" source="un3A0tuxOY-VdEOLaRhM-18" target="un3A0tuxOY-VdEOLaRhM-50">
          <mxGeometry relative="1" as="geometry" />
        </mxCell>
        <mxCell id="un3A0tuxOY-VdEOLaRhM-18" value="&lt;p class=&quot;MsoNormal&quot;&gt;&lt;font style=&quot;font-size: 18px;&quot;&gt;IF 2.76&amp;lt;= IPK &amp;lt;= 3.00&amp;nbsp;&lt;/font&gt;&lt;/p&gt;" style="rhombus;whiteSpace=wrap;html=1;shadow=0;fontFamily=Helvetica;fontSize=12;align=center;strokeWidth=1;spacing=6;spacingTop=-4;" vertex="1" parent="WIyWlLk6GJQsqaUBKTNV-1">
          <mxGeometry x="-830" y="790" width="440" height="120" as="geometry" />
        </mxCell>
        <mxCell id="un3A0tuxOY-VdEOLaRhM-20" value="&lt;font style=&quot;font-size: 18px;&quot;&gt;End&lt;/font&gt;" style="strokeWidth=2;html=1;shape=mxgraph.flowchart.terminator;whiteSpace=wrap;" vertex="1" parent="WIyWlLk6GJQsqaUBKTNV-1">
          <mxGeometry x="600" y="1430" width="230" height="80" as="geometry" />
        </mxCell>
        <mxCell id="un3A0tuxOY-VdEOLaRhM-28" style="edgeStyle=orthogonalEdgeStyle;rounded=0;orthogonalLoop=1;jettySize=auto;html=1;entryX=0.5;entryY=0;entryDx=0;entryDy=0;" edge="1" parent="WIyWlLk6GJQsqaUBKTNV-1" source="un3A0tuxOY-VdEOLaRhM-25" target="un3A0tuxOY-VdEOLaRhM-26">
          <mxGeometry relative="1" as="geometry" />
        </mxCell>
        <mxCell id="un3A0tuxOY-VdEOLaRhM-25" value="&lt;font style=&quot;font-size: 18px;&quot;&gt;Output &quot;&lt;span style=&quot;font-family: Arial, sans-serif;&quot; lang=&quot;EN-US&quot;&gt;Dengan Pujian (Cumlaude)&quot;&lt;/span&gt;&lt;/font&gt;" style="shape=parallelogram;perimeter=parallelogramPerimeter;whiteSpace=wrap;html=1;fixedSize=1;" vertex="1" parent="WIyWlLk6GJQsqaUBKTNV-1">
          <mxGeometry x="475" y="620" width="260" height="150" as="geometry" />
        </mxCell>
        <mxCell id="un3A0tuxOY-VdEOLaRhM-33" style="edgeStyle=orthogonalEdgeStyle;rounded=0;orthogonalLoop=1;jettySize=auto;html=1;" edge="1" parent="WIyWlLk6GJQsqaUBKTNV-1" source="un3A0tuxOY-VdEOLaRhM-26" target="un3A0tuxOY-VdEOLaRhM-20">
          <mxGeometry relative="1" as="geometry" />
        </mxCell>
        <mxCell id="un3A0tuxOY-VdEOLaRhM-26" value="&lt;span style=&quot;&quot; lang=&quot;EN-US&quot;&gt;&lt;font style=&quot;font-size: 18px;&quot;&gt;Output &quot;diusulkan mendapatkan Karya&lt;br&gt;Cendikia&quot;&lt;/font&gt;&lt;/span&gt;" style="shape=parallelogram;perimeter=parallelogramPerimeter;whiteSpace=wrap;html=1;fixedSize=1;" vertex="1" parent="WIyWlLk6GJQsqaUBKTNV-1">
          <mxGeometry x="429.06" y="820" width="351.88" height="150" as="geometry" />
        </mxCell>
        <mxCell id="un3A0tuxOY-VdEOLaRhM-31" style="edgeStyle=orthogonalEdgeStyle;rounded=0;orthogonalLoop=1;jettySize=auto;html=1;" edge="1" parent="WIyWlLk6GJQsqaUBKTNV-1" source="un3A0tuxOY-VdEOLaRhM-29" target="un3A0tuxOY-VdEOLaRhM-20">
          <mxGeometry relative="1" as="geometry" />
        </mxCell>
        <mxCell id="un3A0tuxOY-VdEOLaRhM-29" value="&lt;font style=&quot;font-size: 18px;&quot;&gt;Output &quot;Mahasiswa Tidak LULUS&quot;&lt;/font&gt;" style="shape=parallelogram;perimeter=parallelogramPerimeter;whiteSpace=wrap;html=1;fixedSize=1;shadow=0;strokeWidth=1;spacing=6;spacingTop=-4;" vertex="1" parent="WIyWlLk6GJQsqaUBKTNV-1">
          <mxGeometry x="830" y="930" width="260" height="110" as="geometry" />
        </mxCell>
        <mxCell id="un3A0tuxOY-VdEOLaRhM-36" value="&lt;font style=&quot;font-size: 18px;&quot;&gt;NO&lt;/font&gt;" style="text;html=1;align=center;verticalAlign=middle;whiteSpace=wrap;rounded=0;" vertex="1" parent="WIyWlLk6GJQsqaUBKTNV-1">
          <mxGeometry x="900" y="410" width="60" height="30" as="geometry" />
        </mxCell>
        <mxCell id="un3A0tuxOY-VdEOLaRhM-41" value="&lt;font style=&quot;font-size: 18px;&quot;&gt;Yes&lt;/font&gt;" style="text;html=1;align=center;verticalAlign=middle;whiteSpace=wrap;rounded=0;" vertex="1" parent="WIyWlLk6GJQsqaUBKTNV-1">
          <mxGeometry x="140" y="660" width="60" height="30" as="geometry" />
        </mxCell>
        <mxCell id="un3A0tuxOY-VdEOLaRhM-49" style="edgeStyle=orthogonalEdgeStyle;rounded=0;orthogonalLoop=1;jettySize=auto;html=1;" edge="1" parent="WIyWlLk6GJQsqaUBKTNV-1" source="un3A0tuxOY-VdEOLaRhM-42">
          <mxGeometry relative="1" as="geometry">
            <mxPoint x="720" y="1430" as="targetPoint" />
          </mxGeometry>
        </mxCell>
        <mxCell id="un3A0tuxOY-VdEOLaRhM-42" value="&lt;span style=&quot;line-height: 107%;&quot;&gt;&lt;font face=&quot;Helvetica&quot; style=&quot;font-size: 18px;&quot;&gt;Sangat&lt;br&gt;Memuaskan (Very Satisfactory)&lt;/font&gt;&lt;/span&gt;" style="shape=parallelogram;perimeter=parallelogramPerimeter;whiteSpace=wrap;html=1;fixedSize=1;" vertex="1" parent="WIyWlLk6GJQsqaUBKTNV-1">
          <mxGeometry x="120" y="1120" width="300" height="160" as="geometry" />
        </mxCell>
        <mxCell id="un3A0tuxOY-VdEOLaRhM-52" style="edgeStyle=orthogonalEdgeStyle;rounded=0;orthogonalLoop=1;jettySize=auto;html=1;" edge="1" parent="WIyWlLk6GJQsqaUBKTNV-1" source="un3A0tuxOY-VdEOLaRhM-50" target="un3A0tuxOY-VdEOLaRhM-20">
          <mxGeometry relative="1" as="geometry" />
        </mxCell>
        <mxCell id="un3A0tuxOY-VdEOLaRhM-50" value="&lt;font style=&quot;font-size: 18px;&quot;&gt;Output&amp;nbsp;&lt;span style=&quot;line-height: 107%;&quot;&gt;“Memuaskan&lt;br&gt;(Satisfactory)”&lt;/span&gt;&lt;/font&gt;" style="shape=parallelogram;perimeter=parallelogramPerimeter;whiteSpace=wrap;html=1;fixedSize=1;shadow=0;strokeWidth=1;spacing=6;spacingTop=-4;" vertex="1" parent="WIyWlLk6GJQsqaUBKTNV-1">
          <mxGeometry x="-470" y="1230" width="380" height="180" as="geometry" />
        </mxCell>
        <mxCell id="un3A0tuxOY-VdEOLaRhM-53" value="&lt;font style=&quot;font-size: 18px;&quot;&gt;NO&lt;/font&gt;" style="text;html=1;align=center;verticalAlign=middle;whiteSpace=wrap;rounded=0;" vertex="1" parent="WIyWlLk6GJQsqaUBKTNV-1">
          <mxGeometry x="-470" y="630" width="110" height="60" as="geometry" />
        </mxCell>
        <mxCell id="un3A0tuxOY-VdEOLaRhM-55" value="&lt;font style=&quot;font-size: 18px;&quot;&gt;Yes&lt;/font&gt;" style="text;html=1;align=center;verticalAlign=middle;whiteSpace=wrap;rounded=0;" vertex="1" parent="WIyWlLk6GJQsqaUBKTNV-1">
          <mxGeometry x="-600" y="920" width="60" height="30" as="geometry" />
        </mxCell>
      </root>
    </mxGraphModel>
  </diagram>
</mxfile>
